{"title":"Tasha Reign - Two lovers (Passion HD).wmv","uid":7390513,"size":633250216,"categoryP":"porn","categoryS":"other","magnet":"?xt=urn:btih:4f41e1b44d56aec1c1af60db6721ac6d63078745&amp;dn=Tasha+Reign+-+Two+lovers+%28Passion+HD%29.wmv&amp;tr=udp%3A%2F%2Ftracker.openbittorrent.com%3A80&amp;tr=udp%3A%2F%2Fopen.demonii.com%3A1337&amp;tr=udp%3A%2F%2Ftracker.coppersurfer.tk%3A6969&amp;tr=udp%3A%2F%2Fexodus.desync.com%3A6969","seeders":0,"leechers":1,"uploader":"attilad","files":-1,"time":1340759145,"description":"Screens: http://bayimg.com/NapmeAaDf\n\nGeneral\nComplete name: Tasha_Reign - Two lovers.wmv\nFormat: Windows Media\nFile size: 604 MiB\nDuration: 32mn 1s\nOverall bit rate mode: Constant\nOverall bit rate: 2 636 Kbps\nMaximum Overall bit rate: 2 651 Kbps\nEncoded date: UTC 2011-11-30 04:32:15.257\n\nVideo\nID: 2\nFormat: VC-1\nFormat profile: MP@HL\nCodec ID: WMV3\nCodec ID/Info: Windows Media Video 9\nCodec ID/Hint: WMV3\nDescription of the codec: Windows Media Video 9 - Professional\nDuration: 32mn 1s\nBit rate mode: Constant\nBit rate: 2 500 Kbps\nWidth: 1 280 pixels\nHeight: 720 pixels\nDisplay aspect ratio: 16:9\nFrame rate: 23.976 fps\nNominal frame rate: 29.970 fps\nBit depth: 8 bits\nScan type: Progressive\nCompression mode: Lossy\nBits/(Pixel*Frame): 0.113\nStream size: 573 MiB (95%)\n\nAudio\nID: 1\nFormat: WMA\nFormat version: Version 2\nCodec ID: 161\nCodec ID/Info: Windows Media Audio\nDescription of the codec: Windows Media Audio 9.2 - 128 kbps, 44 kHz, stereo 2-pass CBR\nDuration: 32mn 1s\nBit rate mode: Constant\nBit rate: 128 Kbps\nChannel(s): 2 channels\nSampling rate: 44.1 KHz\nBit depth: 16 bits\nStream size: 29.3 MiB (5%)","torrent":{"xt":"urn:btih:4f41e1b44d56aec1c1af60db6721ac6d63078745","amp;dn":"Tasha+Reign+-+Two+lovers+%28Passion+HD%29.wmv","amp;tr":["udp%3A%2F%2Ftracker.openbittorrent.com%3A80","udp%3A%2F%2Fopen.demonii.com%3A1337","udp%3A%2F%2Ftracker.coppersurfer.tk%3A6969","udp%3A%2F%2Fexodus.desync.com%3A6969"],"infoHash":"4f41e1b44d56aec1c1af60db6721ac6d63078745","infoHashBuffer":{"type":"Buffer","data":[79,65,225,180,77,86,174,193,193,175,96,219,103,33,172,109,99,7,135,69]},"announce":[],"urlList":[]}}